<mxfile host="app.diagrams.net" modified="2022-12-22T21:32:42.676Z" agent="5.0 (X11; Linux x86_64) AppleWebKit/537.36 (KHTML, like Gecko) Chrome/107.0.0.0 Safari/537.36" etag="8huicHp2vSeMxCONsobg" version="20.6.0" type="github">
  <diagram id="Wz5su3VTFCK5ZeWdvNm0" name="Pagina-1">
    <mxGraphModel dx="812" dy="1625" grid="1" gridSize="10" guides="1" tooltips="1" connect="1" arrows="1" fold="1" page="1" pageScale="1" pageWidth="827" pageHeight="1169" math="0" shadow="0">
      <root>
        <mxCell id="0" />
        <mxCell id="1" parent="0" />
        <mxCell id="Ma0h3Pk8NMkdIrSuKU1o-82" style="edgeStyle=none;rounded=0;orthogonalLoop=1;jettySize=auto;html=1;exitX=0.601;exitY=0.998;exitDx=0;exitDy=0;dashed=1;endArrow=classicThin;endFill=1;exitPerimeter=0;" parent="1" edge="1" source="Ma0h3Pk8NMkdIrSuKU1o-147">
          <mxGeometry relative="1" as="geometry">
            <mxPoint x="215.56026315789472" y="315.7414285714285" as="sourcePoint" />
            <mxPoint x="300" y="400" as="targetPoint" />
          </mxGeometry>
        </mxCell>
        <mxCell id="Ma0h3Pk8NMkdIrSuKU1o-83" style="edgeStyle=none;rounded=0;orthogonalLoop=1;jettySize=auto;html=1;exitX=0.16;exitY=0.135;exitDx=0;exitDy=0;entryX=0.6;entryY=0.999;entryDx=0;entryDy=0;entryPerimeter=0;dashed=1;endArrow=classicThin;endFill=1;exitPerimeter=0;" parent="1" edge="1" source="Ma0h3Pk8NMkdIrSuKU1o-231">
          <mxGeometry relative="1" as="geometry">
            <mxPoint x="319.2729766683432" y="390.8691420818768" as="sourcePoint" />
            <mxPoint x="243.07726315789478" y="315.4662585714286" as="targetPoint" />
          </mxGeometry>
        </mxCell>
        <mxCell id="Ma0h3Pk8NMkdIrSuKU1o-84" style="edgeStyle=none;rounded=0;orthogonalLoop=1;jettySize=auto;html=1;exitX=0.789;exitY=0.087;exitDx=0;exitDy=0;entryX=0.291;entryY=0.951;entryDx=0;entryDy=0;entryPerimeter=0;dashed=1;endArrow=classicThin;endFill=1;exitPerimeter=0;" parent="1" source="Ma0h3Pk8NMkdIrSuKU1o-231" target="Ma0h3Pk8NMkdIrSuKU1o-199" edge="1">
          <mxGeometry relative="1" as="geometry">
            <mxPoint x="513.8475496474464" y="390.8691420818768" as="sourcePoint" />
            <mxPoint x="562.922183157895" y="313.9091185714285" as="targetPoint" />
          </mxGeometry>
        </mxCell>
        <mxCell id="Ma0h3Pk8NMkdIrSuKU1o-85" style="edgeStyle=none;rounded=0;orthogonalLoop=1;jettySize=auto;html=1;exitX=0.026;exitY=0.668;exitDx=0;exitDy=0;entryX=1.001;entryY=0.549;entryDx=0;entryDy=0;entryPerimeter=0;dashed=1;endArrow=classicThin;endFill=1;exitPerimeter=0;" parent="1" edge="1" source="Ma0h3Pk8NMkdIrSuKU1o-199">
          <mxGeometry relative="1" as="geometry">
            <mxPoint x="486.97526315789423" y="188.15642857142848" as="sourcePoint" />
            <mxPoint x="353.42043315789465" y="191.6397585714285" as="targetPoint" />
          </mxGeometry>
        </mxCell>
        <mxCell id="Ma0h3Pk8NMkdIrSuKU1o-86" style="edgeStyle=none;rounded=0;orthogonalLoop=1;jettySize=auto;html=1;exitX=1;exitY=0.5;exitDx=0;exitDy=0;entryX=-0.003;entryY=0.454;entryDx=0;entryDy=0;entryPerimeter=0;dashed=1;endArrow=classicThin;endFill=1;" parent="1" edge="1">
          <mxGeometry relative="1" as="geometry">
            <mxPoint x="353.1452631578934" y="178.1564285714286" as="sourcePoint" />
            <mxPoint x="486.149753157895" y="175.49860857142835" as="targetPoint" />
          </mxGeometry>
        </mxCell>
        <mxCell id="Ma0h3Pk8NMkdIrSuKU1o-137" value="" style="group" parent="1" vertex="1" connectable="0">
          <mxGeometry x="40" y="80" width="314.059649122807" height="244.28571428571428" as="geometry" />
        </mxCell>
        <mxCell id="Ma0h3Pk8NMkdIrSuKU1o-112" value="" style="endArrow=none;html=1;rounded=0;" parent="Ma0h3Pk8NMkdIrSuKU1o-137" edge="1">
          <mxGeometry width="50" height="50" relative="1" as="geometry">
            <mxPoint x="21.052631578947366" y="170" as="sourcePoint" />
            <mxPoint x="21.052631578947366" y="97.14285714285714" as="targetPoint" />
          </mxGeometry>
        </mxCell>
        <mxCell id="Ma0h3Pk8NMkdIrSuKU1o-113" value="" style="endArrow=none;html=1;rounded=0;" parent="Ma0h3Pk8NMkdIrSuKU1o-137" edge="1">
          <mxGeometry width="50" height="50" relative="1" as="geometry">
            <mxPoint x="29.3859649122807" y="170" as="sourcePoint" />
            <mxPoint x="29.3859649122807" y="97.14285714285714" as="targetPoint" />
          </mxGeometry>
        </mxCell>
        <mxCell id="Ma0h3Pk8NMkdIrSuKU1o-114" value="" style="group" parent="Ma0h3Pk8NMkdIrSuKU1o-137" vertex="1" connectable="0">
          <mxGeometry x="43.859649122807014" y="24.285714285714285" width="270.2" height="220" as="geometry" />
        </mxCell>
        <mxCell id="Ma0h3Pk8NMkdIrSuKU1o-115" style="edgeStyle=none;rounded=0;orthogonalLoop=1;jettySize=auto;html=1;exitX=0.65;exitY=1.017;exitDx=0;exitDy=0;endArrow=baseDash;endFill=0;exitPerimeter=0;" parent="Ma0h3Pk8NMkdIrSuKU1o-114" source="Ma0h3Pk8NMkdIrSuKU1o-116" edge="1">
          <mxGeometry relative="1" as="geometry">
            <mxPoint x="146.29315223542727" y="75.93871385412169" as="targetPoint" />
            <mxPoint x="136.3186191284663" y="59.063444108761324" as="sourcePoint" />
          </mxGeometry>
        </mxCell>
        <mxCell id="Ma0h3Pk8NMkdIrSuKU1o-116" value="" style="rounded=1;whiteSpace=wrap;html=1;" parent="Ma0h3Pk8NMkdIrSuKU1o-114" vertex="1">
          <mxGeometry x="109.71986417657045" y="33.75053949072075" width="39.8981324278438" height="25.312904618040566" as="geometry" />
        </mxCell>
        <mxCell id="Ma0h3Pk8NMkdIrSuKU1o-117" value="" style="rounded=1;whiteSpace=wrap;html=1;" parent="Ma0h3Pk8NMkdIrSuKU1o-114" vertex="1">
          <mxGeometry x="166.2422184493492" y="54.84462667242123" width="39.8981324278438" height="25.312904618040566" as="geometry" />
        </mxCell>
        <mxCell id="Ma0h3Pk8NMkdIrSuKU1o-118" value="" style="rounded=1;whiteSpace=wrap;html=1;" parent="Ma0h3Pk8NMkdIrSuKU1o-114" vertex="1">
          <mxGeometry x="97.75042444821732" y="80.1575312904618" width="39.8981324278438" height="25.312904618040566" as="geometry" />
        </mxCell>
        <mxCell id="Ma0h3Pk8NMkdIrSuKU1o-119" style="edgeStyle=none;rounded=0;orthogonalLoop=1;jettySize=auto;html=1;exitX=1;exitY=0.25;exitDx=0;exitDy=0;entryX=0;entryY=0.5;entryDx=0;entryDy=0;endArrow=classicThin;endFill=1;" parent="Ma0h3Pk8NMkdIrSuKU1o-114" source="Ma0h3Pk8NMkdIrSuKU1o-118" target="Ma0h3Pk8NMkdIrSuKU1o-117" edge="1">
          <mxGeometry relative="1" as="geometry">
            <mxPoint x="129.66893039049233" y="92.81398359948209" as="sourcePoint" />
            <mxPoint x="164.247311827957" y="67.09607250755285" as="targetPoint" />
          </mxGeometry>
        </mxCell>
        <mxCell id="Ma0h3Pk8NMkdIrSuKU1o-120" value="" style="rounded=1;whiteSpace=wrap;html=1;" parent="Ma0h3Pk8NMkdIrSuKU1o-114" vertex="1">
          <mxGeometry x="36.57328805885682" y="46.40699179974104" width="39.8981324278438" height="25.312904618040566" as="geometry" />
        </mxCell>
        <mxCell id="Ma0h3Pk8NMkdIrSuKU1o-121" style="rounded=0;orthogonalLoop=1;jettySize=auto;html=1;exitX=1;exitY=0.633;exitDx=0;exitDy=0;entryX=0;entryY=0;entryDx=0;entryDy=0;endArrow=baseDash;endFill=0;exitPerimeter=0;" parent="Ma0h3Pk8NMkdIrSuKU1o-114" source="Ma0h3Pk8NMkdIrSuKU1o-120" target="Ma0h3Pk8NMkdIrSuKU1o-118" edge="1">
          <mxGeometry relative="1" as="geometry">
            <mxPoint x="103.07017543859648" y="84.37634872680188" as="targetPoint" />
            <mxPoint x="75.90096737854215" y="62.55842690737773" as="sourcePoint" />
          </mxGeometry>
        </mxCell>
        <mxCell id="Ma0h3Pk8NMkdIrSuKU1o-122" value="" style="rounded=1;whiteSpace=wrap;html=1;" parent="Ma0h3Pk8NMkdIrSuKU1o-114" vertex="1">
          <mxGeometry x="29.923599320882847" y="114.32995252481655" width="39.8981324278438" height="25.312904618040566" as="geometry" />
        </mxCell>
        <mxCell id="Ma0h3Pk8NMkdIrSuKU1o-123" style="edgeStyle=none;rounded=0;orthogonalLoop=1;jettySize=auto;html=1;exitX=1;exitY=0.5;exitDx=0;exitDy=0;entryX=0;entryY=1;entryDx=0;entryDy=0;endArrow=classicThin;endFill=1;" parent="Ma0h3Pk8NMkdIrSuKU1o-114" source="Ma0h3Pk8NMkdIrSuKU1o-122" target="Ma0h3Pk8NMkdIrSuKU1o-118" edge="1">
          <mxGeometry relative="1" as="geometry">
            <mxPoint x="69.25127864056819" y="127.28835772792651" as="sourcePoint" />
            <mxPoint x="106.96547291574194" y="104.74660127077868" as="targetPoint" />
          </mxGeometry>
        </mxCell>
        <mxCell id="Ma0h3Pk8NMkdIrSuKU1o-124" style="rounded=0;orthogonalLoop=1;jettySize=auto;html=1;entryX=0;entryY=0;entryDx=0;entryDy=0;endArrow=baseDash;endFill=0;dashed=1;" parent="Ma0h3Pk8NMkdIrSuKU1o-114" target="Ma0h3Pk8NMkdIrSuKU1o-116" edge="1">
          <mxGeometry relative="1" as="geometry">
            <mxPoint x="101.07526881720429" y="84.37634872680188" as="targetPoint" />
            <mxPoint x="99.74533106960949" y="4.218817436340093" as="sourcePoint" />
          </mxGeometry>
        </mxCell>
        <mxCell id="Ma0h3Pk8NMkdIrSuKU1o-125" style="rounded=0;orthogonalLoop=1;jettySize=auto;html=1;entryX=0;entryY=0;entryDx=0;entryDy=0;endArrow=baseDash;endFill=0;dashed=1;" parent="Ma0h3Pk8NMkdIrSuKU1o-114" target="Ma0h3Pk8NMkdIrSuKU1o-120" edge="1">
          <mxGeometry relative="1" as="geometry">
            <mxPoint x="113.04470854555741" y="37.96935692706084" as="targetPoint" />
            <mxPoint x="13.299377475947933" y="21.09408718170047" as="sourcePoint" />
          </mxGeometry>
        </mxCell>
        <mxCell id="Ma0h3Pk8NMkdIrSuKU1o-126" style="rounded=0;orthogonalLoop=1;jettySize=auto;html=1;endArrow=baseDash;endFill=0;dashed=1;entryX=-0.033;entryY=0.9;entryDx=0;entryDy=0;entryPerimeter=0;" parent="Ma0h3Pk8NMkdIrSuKU1o-114" target="Ma0h3Pk8NMkdIrSuKU1o-122" edge="1">
          <mxGeometry relative="1" as="geometry">
            <mxPoint x="26.598754951895867" y="130.78334052654293" as="targetPoint" />
            <mxPoint x="3.3248443689869833" y="135.002157962883" as="sourcePoint" />
          </mxGeometry>
        </mxCell>
        <mxCell id="Ma0h3Pk8NMkdIrSuKU1o-127" style="edgeStyle=none;rounded=0;orthogonalLoop=1;jettySize=auto;html=1;exitX=1;exitY=0.5;exitDx=0;exitDy=0;entryX=0;entryY=1;entryDx=0;entryDy=0;endArrow=classicThin;endFill=1;dashed=1;" parent="Ma0h3Pk8NMkdIrSuKU1o-114" edge="1">
          <mxGeometry relative="1" as="geometry">
            <mxPoint x="8.644595359366157" y="92.81398359948209" as="sourcePoint" />
            <mxPoint x="36.57328805885682" y="71.7198964177816" as="targetPoint" />
          </mxGeometry>
        </mxCell>
        <mxCell id="Ma0h3Pk8NMkdIrSuKU1o-128" style="edgeStyle=none;rounded=0;orthogonalLoop=1;jettySize=auto;html=1;entryX=0;entryY=1;entryDx=0;entryDy=0;endArrow=classicThin;endFill=1;dashed=1;" parent="Ma0h3Pk8NMkdIrSuKU1o-114" edge="1">
          <mxGeometry relative="1" as="geometry">
            <mxPoint y="122.34570565386274" as="sourcePoint" />
            <mxPoint x="29.923599320882847" y="116.01747949935259" as="targetPoint" />
          </mxGeometry>
        </mxCell>
        <mxCell id="Ma0h3Pk8NMkdIrSuKU1o-129" style="edgeStyle=none;rounded=0;orthogonalLoop=1;jettySize=auto;html=1;entryX=0.45;entryY=-0.017;entryDx=0;entryDy=0;endArrow=classicThin;endFill=1;dashed=1;entryPerimeter=0;" parent="Ma0h3Pk8NMkdIrSuKU1o-114" target="Ma0h3Pk8NMkdIrSuKU1o-116" edge="1">
          <mxGeometry relative="1" as="geometry">
            <mxPoint x="123.01924165251839" as="sourcePoint" />
            <mxPoint x="33.24844368986983" y="120.23629693569268" as="targetPoint" />
          </mxGeometry>
        </mxCell>
        <mxCell id="Ma0h3Pk8NMkdIrSuKU1o-147" value="" style="ellipse;whiteSpace=wrap;html=1;aspect=fixed;fillColor=none;" parent="Ma0h3Pk8NMkdIrSuKU1o-114" vertex="1">
          <mxGeometry x="-60" y="-110.2" width="330.2" height="330.2" as="geometry" />
        </mxCell>
        <mxCell id="Ma0h3Pk8NMkdIrSuKU1o-131" style="edgeStyle=none;rounded=0;orthogonalLoop=1;jettySize=auto;html=1;exitX=1.025;exitY=0.675;exitDx=0;exitDy=0;dashed=1;endArrow=classicThin;endFill=1;exitPerimeter=0;" parent="Ma0h3Pk8NMkdIrSuKU1o-137" edge="1">
          <mxGeometry relative="1" as="geometry">
            <mxPoint x="50" y="86" as="targetPoint" />
            <mxPoint x="34.649122807017534" y="85.94259821428568" as="sourcePoint" />
          </mxGeometry>
        </mxCell>
        <mxCell id="Ma0h3Pk8NMkdIrSuKU1o-132" value="" style="rounded=1;whiteSpace=wrap;html=1;" parent="Ma0h3Pk8NMkdIrSuKU1o-137" vertex="1">
          <mxGeometry x="16.666666666666664" y="72.85714285714285" width="17.543859649122805" height="25.311785714285712" as="geometry" />
        </mxCell>
        <mxCell id="Ma0h3Pk8NMkdIrSuKU1o-133" value="" style="endArrow=none;html=1;rounded=0;" parent="Ma0h3Pk8NMkdIrSuKU1o-137" edge="1">
          <mxGeometry width="50" height="50" relative="1" as="geometry">
            <mxPoint x="21.052631578947366" y="73.46428571428571" as="sourcePoint" />
            <mxPoint x="21.052631578947366" as="targetPoint" />
          </mxGeometry>
        </mxCell>
        <mxCell id="Ma0h3Pk8NMkdIrSuKU1o-134" style="edgeStyle=none;rounded=0;orthogonalLoop=1;jettySize=auto;html=1;entryX=-0.02;entryY=0.279;entryDx=0;entryDy=0;endArrow=classicThin;endFill=1;entryPerimeter=0;" parent="Ma0h3Pk8NMkdIrSuKU1o-137" edge="1">
          <mxGeometry relative="1" as="geometry">
            <mxPoint y="86" as="sourcePoint" />
            <mxPoint x="16.31578947368422" y="85.91913107142855" as="targetPoint" />
          </mxGeometry>
        </mxCell>
        <mxCell id="Ma0h3Pk8NMkdIrSuKU1o-136" value="" style="endArrow=none;html=1;rounded=0;" parent="Ma0h3Pk8NMkdIrSuKU1o-137" edge="1">
          <mxGeometry width="50" height="50" relative="1" as="geometry">
            <mxPoint x="29.3859649122807" y="72.85714285714285" as="sourcePoint" />
            <mxPoint x="29.3859649122807" as="targetPoint" />
          </mxGeometry>
        </mxCell>
        <mxCell id="Ma0h3Pk8NMkdIrSuKU1o-138" value="" style="endArrow=none;html=1;rounded=0;" parent="1" edge="1">
          <mxGeometry width="50" height="50" relative="1" as="geometry">
            <mxPoint x="317.05263157894734" y="247" as="sourcePoint" />
            <mxPoint x="317.05263157894734" y="174.1428571428571" as="targetPoint" />
          </mxGeometry>
        </mxCell>
        <mxCell id="Ma0h3Pk8NMkdIrSuKU1o-139" value="" style="endArrow=none;html=1;rounded=0;" parent="1" edge="1">
          <mxGeometry width="50" height="50" relative="1" as="geometry">
            <mxPoint x="325.3859649122807" y="247" as="sourcePoint" />
            <mxPoint x="325.3859649122807" y="174.1428571428571" as="targetPoint" />
          </mxGeometry>
        </mxCell>
        <mxCell id="Ma0h3Pk8NMkdIrSuKU1o-140" style="edgeStyle=none;rounded=0;orthogonalLoop=1;jettySize=auto;html=1;exitX=1;exitY=0.25;exitDx=0;exitDy=0;dashed=1;endArrow=classicThin;endFill=1;" parent="1" edge="1">
          <mxGeometry relative="1" as="geometry">
            <mxPoint x="312" y="163" as="targetPoint" />
            <mxPoint x="296.2105263157894" y="163.1850892857143" as="sourcePoint" />
          </mxGeometry>
        </mxCell>
        <mxCell id="Ma0h3Pk8NMkdIrSuKU1o-141" value="" style="rounded=1;whiteSpace=wrap;html=1;" parent="1" vertex="1">
          <mxGeometry x="312.66666666666663" y="149.85714285714283" width="17.543859649122805" height="25.311785714285712" as="geometry" />
        </mxCell>
        <mxCell id="Ma0h3Pk8NMkdIrSuKU1o-142" value="" style="endArrow=none;html=1;rounded=0;" parent="1" edge="1">
          <mxGeometry width="50" height="50" relative="1" as="geometry">
            <mxPoint x="317.05263157894734" y="150.46428571428572" as="sourcePoint" />
            <mxPoint x="317.05263157894734" y="77" as="targetPoint" />
          </mxGeometry>
        </mxCell>
        <mxCell id="Ma0h3Pk8NMkdIrSuKU1o-145" value="" style="endArrow=none;html=1;rounded=0;" parent="1" edge="1">
          <mxGeometry width="50" height="50" relative="1" as="geometry">
            <mxPoint x="325.3859649122807" y="149.85714285714283" as="sourcePoint" />
            <mxPoint x="325.3859649122807" y="77" as="targetPoint" />
          </mxGeometry>
        </mxCell>
        <mxCell id="Ma0h3Pk8NMkdIrSuKU1o-146" style="edgeStyle=none;rounded=0;orthogonalLoop=1;jettySize=auto;html=1;entryX=0;entryY=0.25;entryDx=0;entryDy=0;endArrow=classicThin;endFill=1;" parent="1" edge="1">
          <mxGeometry relative="1" as="geometry">
            <mxPoint x="330.21" y="162.92" as="sourcePoint" />
            <mxPoint x="346.8766666666666" y="162.10508928571412" as="targetPoint" />
          </mxGeometry>
        </mxCell>
        <mxCell id="Ma0h3Pk8NMkdIrSuKU1o-180" value="" style="group" parent="1" vertex="1" connectable="0">
          <mxGeometry x="500" y="53" width="314.059649122807" height="244.28571428571428" as="geometry" />
        </mxCell>
        <mxCell id="Ma0h3Pk8NMkdIrSuKU1o-181" value="" style="endArrow=none;html=1;rounded=0;" parent="Ma0h3Pk8NMkdIrSuKU1o-180" edge="1">
          <mxGeometry width="50" height="50" relative="1" as="geometry">
            <mxPoint x="21.052631578947366" y="170" as="sourcePoint" />
            <mxPoint x="21.052631578947366" y="97.14285714285714" as="targetPoint" />
          </mxGeometry>
        </mxCell>
        <mxCell id="Ma0h3Pk8NMkdIrSuKU1o-182" value="" style="endArrow=none;html=1;rounded=0;" parent="Ma0h3Pk8NMkdIrSuKU1o-180" edge="1">
          <mxGeometry width="50" height="50" relative="1" as="geometry">
            <mxPoint x="29.3859649122807" y="170" as="sourcePoint" />
            <mxPoint x="29.3859649122807" y="97.14285714285714" as="targetPoint" />
          </mxGeometry>
        </mxCell>
        <mxCell id="Ma0h3Pk8NMkdIrSuKU1o-183" value="" style="group" parent="Ma0h3Pk8NMkdIrSuKU1o-180" vertex="1" connectable="0">
          <mxGeometry x="43.859649122807014" y="24.285714285714285" width="270.2" height="220" as="geometry" />
        </mxCell>
        <mxCell id="Ma0h3Pk8NMkdIrSuKU1o-184" style="edgeStyle=none;rounded=0;orthogonalLoop=1;jettySize=auto;html=1;exitX=0.65;exitY=1.017;exitDx=0;exitDy=0;endArrow=baseDash;endFill=0;exitPerimeter=0;" parent="Ma0h3Pk8NMkdIrSuKU1o-183" source="Ma0h3Pk8NMkdIrSuKU1o-185" edge="1">
          <mxGeometry relative="1" as="geometry">
            <mxPoint x="146.29315223542727" y="75.93871385412169" as="targetPoint" />
            <mxPoint x="136.3186191284663" y="59.063444108761324" as="sourcePoint" />
          </mxGeometry>
        </mxCell>
        <mxCell id="Ma0h3Pk8NMkdIrSuKU1o-185" value="" style="rounded=1;whiteSpace=wrap;html=1;" parent="Ma0h3Pk8NMkdIrSuKU1o-183" vertex="1">
          <mxGeometry x="109.71986417657045" y="33.75053949072075" width="39.8981324278438" height="25.312904618040566" as="geometry" />
        </mxCell>
        <mxCell id="Ma0h3Pk8NMkdIrSuKU1o-186" value="" style="rounded=1;whiteSpace=wrap;html=1;" parent="Ma0h3Pk8NMkdIrSuKU1o-183" vertex="1">
          <mxGeometry x="166.2422184493492" y="54.84462667242123" width="39.8981324278438" height="25.312904618040566" as="geometry" />
        </mxCell>
        <mxCell id="Ma0h3Pk8NMkdIrSuKU1o-187" value="" style="rounded=1;whiteSpace=wrap;html=1;" parent="Ma0h3Pk8NMkdIrSuKU1o-183" vertex="1">
          <mxGeometry x="97.75042444821732" y="80.1575312904618" width="39.8981324278438" height="25.312904618040566" as="geometry" />
        </mxCell>
        <mxCell id="Ma0h3Pk8NMkdIrSuKU1o-188" style="edgeStyle=none;rounded=0;orthogonalLoop=1;jettySize=auto;html=1;exitX=1;exitY=0.25;exitDx=0;exitDy=0;entryX=0;entryY=0.5;entryDx=0;entryDy=0;endArrow=classicThin;endFill=1;" parent="Ma0h3Pk8NMkdIrSuKU1o-183" source="Ma0h3Pk8NMkdIrSuKU1o-187" target="Ma0h3Pk8NMkdIrSuKU1o-186" edge="1">
          <mxGeometry relative="1" as="geometry">
            <mxPoint x="129.66893039049233" y="92.81398359948209" as="sourcePoint" />
            <mxPoint x="164.247311827957" y="67.09607250755285" as="targetPoint" />
          </mxGeometry>
        </mxCell>
        <mxCell id="Ma0h3Pk8NMkdIrSuKU1o-189" value="" style="rounded=1;whiteSpace=wrap;html=1;" parent="Ma0h3Pk8NMkdIrSuKU1o-183" vertex="1">
          <mxGeometry x="36.57328805885682" y="46.40699179974104" width="39.8981324278438" height="25.312904618040566" as="geometry" />
        </mxCell>
        <mxCell id="Ma0h3Pk8NMkdIrSuKU1o-190" style="rounded=0;orthogonalLoop=1;jettySize=auto;html=1;exitX=1;exitY=0.633;exitDx=0;exitDy=0;entryX=0;entryY=0;entryDx=0;entryDy=0;endArrow=baseDash;endFill=0;exitPerimeter=0;" parent="Ma0h3Pk8NMkdIrSuKU1o-183" source="Ma0h3Pk8NMkdIrSuKU1o-189" target="Ma0h3Pk8NMkdIrSuKU1o-187" edge="1">
          <mxGeometry relative="1" as="geometry">
            <mxPoint x="103.07017543859648" y="84.37634872680188" as="targetPoint" />
            <mxPoint x="75.90096737854215" y="62.55842690737773" as="sourcePoint" />
          </mxGeometry>
        </mxCell>
        <mxCell id="Ma0h3Pk8NMkdIrSuKU1o-191" value="" style="rounded=1;whiteSpace=wrap;html=1;" parent="Ma0h3Pk8NMkdIrSuKU1o-183" vertex="1">
          <mxGeometry x="29.923599320882847" y="114.32995252481655" width="39.8981324278438" height="25.312904618040566" as="geometry" />
        </mxCell>
        <mxCell id="Ma0h3Pk8NMkdIrSuKU1o-192" style="edgeStyle=none;rounded=0;orthogonalLoop=1;jettySize=auto;html=1;exitX=1;exitY=0.5;exitDx=0;exitDy=0;entryX=0;entryY=1;entryDx=0;entryDy=0;endArrow=classicThin;endFill=1;" parent="Ma0h3Pk8NMkdIrSuKU1o-183" source="Ma0h3Pk8NMkdIrSuKU1o-191" target="Ma0h3Pk8NMkdIrSuKU1o-187" edge="1">
          <mxGeometry relative="1" as="geometry">
            <mxPoint x="69.25127864056819" y="127.28835772792651" as="sourcePoint" />
            <mxPoint x="106.96547291574194" y="104.74660127077868" as="targetPoint" />
          </mxGeometry>
        </mxCell>
        <mxCell id="Ma0h3Pk8NMkdIrSuKU1o-193" style="rounded=0;orthogonalLoop=1;jettySize=auto;html=1;entryX=0;entryY=0;entryDx=0;entryDy=0;endArrow=baseDash;endFill=0;dashed=1;" parent="Ma0h3Pk8NMkdIrSuKU1o-183" target="Ma0h3Pk8NMkdIrSuKU1o-185" edge="1">
          <mxGeometry relative="1" as="geometry">
            <mxPoint x="101.07526881720429" y="84.37634872680188" as="targetPoint" />
            <mxPoint x="99.74533106960949" y="4.218817436340093" as="sourcePoint" />
          </mxGeometry>
        </mxCell>
        <mxCell id="Ma0h3Pk8NMkdIrSuKU1o-194" style="rounded=0;orthogonalLoop=1;jettySize=auto;html=1;entryX=0;entryY=0;entryDx=0;entryDy=0;endArrow=baseDash;endFill=0;dashed=1;" parent="Ma0h3Pk8NMkdIrSuKU1o-183" target="Ma0h3Pk8NMkdIrSuKU1o-189" edge="1">
          <mxGeometry relative="1" as="geometry">
            <mxPoint x="113.04470854555741" y="37.96935692706084" as="targetPoint" />
            <mxPoint x="13.299377475947933" y="21.09408718170047" as="sourcePoint" />
          </mxGeometry>
        </mxCell>
        <mxCell id="Ma0h3Pk8NMkdIrSuKU1o-195" style="rounded=0;orthogonalLoop=1;jettySize=auto;html=1;endArrow=baseDash;endFill=0;dashed=1;entryX=-0.033;entryY=0.9;entryDx=0;entryDy=0;entryPerimeter=0;" parent="Ma0h3Pk8NMkdIrSuKU1o-183" target="Ma0h3Pk8NMkdIrSuKU1o-191" edge="1">
          <mxGeometry relative="1" as="geometry">
            <mxPoint x="26.598754951895867" y="130.78334052654293" as="targetPoint" />
            <mxPoint x="3.3248443689869833" y="135.002157962883" as="sourcePoint" />
          </mxGeometry>
        </mxCell>
        <mxCell id="Ma0h3Pk8NMkdIrSuKU1o-196" style="edgeStyle=none;rounded=0;orthogonalLoop=1;jettySize=auto;html=1;exitX=1;exitY=0.5;exitDx=0;exitDy=0;entryX=0;entryY=1;entryDx=0;entryDy=0;endArrow=classicThin;endFill=1;dashed=1;" parent="Ma0h3Pk8NMkdIrSuKU1o-183" edge="1">
          <mxGeometry relative="1" as="geometry">
            <mxPoint x="8.644595359366157" y="92.81398359948209" as="sourcePoint" />
            <mxPoint x="36.57328805885682" y="71.7198964177816" as="targetPoint" />
          </mxGeometry>
        </mxCell>
        <mxCell id="Ma0h3Pk8NMkdIrSuKU1o-197" style="edgeStyle=none;rounded=0;orthogonalLoop=1;jettySize=auto;html=1;entryX=0;entryY=1;entryDx=0;entryDy=0;endArrow=classicThin;endFill=1;dashed=1;" parent="Ma0h3Pk8NMkdIrSuKU1o-183" edge="1">
          <mxGeometry relative="1" as="geometry">
            <mxPoint y="122.34570565386274" as="sourcePoint" />
            <mxPoint x="29.923599320882847" y="116.01747949935259" as="targetPoint" />
          </mxGeometry>
        </mxCell>
        <mxCell id="Ma0h3Pk8NMkdIrSuKU1o-198" style="edgeStyle=none;rounded=0;orthogonalLoop=1;jettySize=auto;html=1;entryX=0.45;entryY=-0.017;entryDx=0;entryDy=0;endArrow=classicThin;endFill=1;dashed=1;entryPerimeter=0;" parent="Ma0h3Pk8NMkdIrSuKU1o-183" target="Ma0h3Pk8NMkdIrSuKU1o-185" edge="1">
          <mxGeometry relative="1" as="geometry">
            <mxPoint x="123.01924165251839" as="sourcePoint" />
            <mxPoint x="33.24844368986983" y="120.23629693569268" as="targetPoint" />
          </mxGeometry>
        </mxCell>
        <mxCell id="Ma0h3Pk8NMkdIrSuKU1o-199" value="" style="ellipse;whiteSpace=wrap;html=1;aspect=fixed;fillColor=none;" parent="Ma0h3Pk8NMkdIrSuKU1o-183" vertex="1">
          <mxGeometry x="-60" y="-110.2" width="330.2" height="330.2" as="geometry" />
        </mxCell>
        <mxCell id="Ma0h3Pk8NMkdIrSuKU1o-200" style="edgeStyle=none;rounded=0;orthogonalLoop=1;jettySize=auto;html=1;exitX=1.025;exitY=0.675;exitDx=0;exitDy=0;dashed=1;endArrow=classicThin;endFill=1;exitPerimeter=0;" parent="Ma0h3Pk8NMkdIrSuKU1o-180" edge="1">
          <mxGeometry relative="1" as="geometry">
            <mxPoint x="50" y="86" as="targetPoint" />
            <mxPoint x="34.649122807017534" y="85.94259821428568" as="sourcePoint" />
          </mxGeometry>
        </mxCell>
        <mxCell id="Ma0h3Pk8NMkdIrSuKU1o-201" value="" style="rounded=1;whiteSpace=wrap;html=1;" parent="Ma0h3Pk8NMkdIrSuKU1o-180" vertex="1">
          <mxGeometry x="16.666666666666664" y="72.85714285714285" width="17.543859649122805" height="25.311785714285712" as="geometry" />
        </mxCell>
        <mxCell id="Ma0h3Pk8NMkdIrSuKU1o-202" value="" style="endArrow=none;html=1;rounded=0;" parent="Ma0h3Pk8NMkdIrSuKU1o-180" edge="1">
          <mxGeometry width="50" height="50" relative="1" as="geometry">
            <mxPoint x="21.052631578947366" y="73.46428571428571" as="sourcePoint" />
            <mxPoint x="21.052631578947366" as="targetPoint" />
          </mxGeometry>
        </mxCell>
        <mxCell id="Ma0h3Pk8NMkdIrSuKU1o-203" style="edgeStyle=none;rounded=0;orthogonalLoop=1;jettySize=auto;html=1;entryX=-0.02;entryY=0.279;entryDx=0;entryDy=0;endArrow=classicThin;endFill=1;entryPerimeter=0;" parent="Ma0h3Pk8NMkdIrSuKU1o-180" edge="1">
          <mxGeometry relative="1" as="geometry">
            <mxPoint y="86" as="sourcePoint" />
            <mxPoint x="16.31578947368422" y="85.91913107142855" as="targetPoint" />
          </mxGeometry>
        </mxCell>
        <mxCell id="Ma0h3Pk8NMkdIrSuKU1o-204" value="" style="endArrow=none;html=1;rounded=0;" parent="Ma0h3Pk8NMkdIrSuKU1o-180" edge="1">
          <mxGeometry width="50" height="50" relative="1" as="geometry">
            <mxPoint x="29.3859649122807" y="72.85714285714285" as="sourcePoint" />
            <mxPoint x="29.3859649122807" as="targetPoint" />
          </mxGeometry>
        </mxCell>
        <mxCell id="Ma0h3Pk8NMkdIrSuKU1o-205" value="" style="endArrow=none;html=1;rounded=0;" parent="1" edge="1">
          <mxGeometry width="50" height="50" relative="1" as="geometry">
            <mxPoint x="777.0526315789473" y="220" as="sourcePoint" />
            <mxPoint x="777.0526315789473" y="147.14285714285688" as="targetPoint" />
          </mxGeometry>
        </mxCell>
        <mxCell id="Ma0h3Pk8NMkdIrSuKU1o-206" value="" style="endArrow=none;html=1;rounded=0;" parent="1" edge="1">
          <mxGeometry width="50" height="50" relative="1" as="geometry">
            <mxPoint x="785.3859649122808" y="220" as="sourcePoint" />
            <mxPoint x="785.3859649122808" y="147.14285714285688" as="targetPoint" />
          </mxGeometry>
        </mxCell>
        <mxCell id="Ma0h3Pk8NMkdIrSuKU1o-207" style="edgeStyle=none;rounded=0;orthogonalLoop=1;jettySize=auto;html=1;exitX=1;exitY=0.25;exitDx=0;exitDy=0;dashed=1;endArrow=classicThin;endFill=1;" parent="1" edge="1">
          <mxGeometry relative="1" as="geometry">
            <mxPoint x="772" y="136" as="targetPoint" />
            <mxPoint x="756.2105263157894" y="136.18508928571418" as="sourcePoint" />
          </mxGeometry>
        </mxCell>
        <mxCell id="Ma0h3Pk8NMkdIrSuKU1o-208" value="" style="rounded=1;whiteSpace=wrap;html=1;" parent="1" vertex="1">
          <mxGeometry x="772.6666666666666" y="122.85714285714283" width="17.543859649122805" height="25.311785714285712" as="geometry" />
        </mxCell>
        <mxCell id="Ma0h3Pk8NMkdIrSuKU1o-209" value="" style="endArrow=none;html=1;rounded=0;" parent="1" edge="1">
          <mxGeometry width="50" height="50" relative="1" as="geometry">
            <mxPoint x="777.0526315789473" y="123.46428571428578" as="sourcePoint" />
            <mxPoint x="777.0526315789473" y="50" as="targetPoint" />
          </mxGeometry>
        </mxCell>
        <mxCell id="Ma0h3Pk8NMkdIrSuKU1o-210" value="" style="endArrow=none;html=1;rounded=0;" parent="1" edge="1">
          <mxGeometry width="50" height="50" relative="1" as="geometry">
            <mxPoint x="785.3859649122808" y="122.85714285714289" as="sourcePoint" />
            <mxPoint x="785.3859649122808" y="50" as="targetPoint" />
          </mxGeometry>
        </mxCell>
        <mxCell id="Ma0h3Pk8NMkdIrSuKU1o-211" style="edgeStyle=none;rounded=0;orthogonalLoop=1;jettySize=auto;html=1;entryX=0;entryY=0.25;entryDx=0;entryDy=0;endArrow=classicThin;endFill=1;" parent="1" edge="1">
          <mxGeometry relative="1" as="geometry">
            <mxPoint x="790.21" y="135.92000000000007" as="sourcePoint" />
            <mxPoint x="806.8766666666666" y="135.10508928571403" as="targetPoint" />
          </mxGeometry>
        </mxCell>
        <mxCell id="Ma0h3Pk8NMkdIrSuKU1o-212" value="" style="group" parent="1" vertex="1" connectable="0">
          <mxGeometry x="280" y="429" width="314.059649122807" height="244.28571428571428" as="geometry" />
        </mxCell>
        <mxCell id="Ma0h3Pk8NMkdIrSuKU1o-213" value="" style="endArrow=none;html=1;rounded=0;" parent="Ma0h3Pk8NMkdIrSuKU1o-212" edge="1">
          <mxGeometry width="50" height="50" relative="1" as="geometry">
            <mxPoint x="21.052631578947366" y="170" as="sourcePoint" />
            <mxPoint x="21.052631578947366" y="97.14285714285714" as="targetPoint" />
          </mxGeometry>
        </mxCell>
        <mxCell id="Ma0h3Pk8NMkdIrSuKU1o-214" value="" style="endArrow=none;html=1;rounded=0;" parent="Ma0h3Pk8NMkdIrSuKU1o-212" edge="1">
          <mxGeometry width="50" height="50" relative="1" as="geometry">
            <mxPoint x="29.3859649122807" y="170" as="sourcePoint" />
            <mxPoint x="29.3859649122807" y="97.14285714285714" as="targetPoint" />
          </mxGeometry>
        </mxCell>
        <mxCell id="Ma0h3Pk8NMkdIrSuKU1o-215" value="" style="group" parent="Ma0h3Pk8NMkdIrSuKU1o-212" vertex="1" connectable="0">
          <mxGeometry x="43.859649122807014" y="24.285714285714285" width="270.2" height="220" as="geometry" />
        </mxCell>
        <mxCell id="Ma0h3Pk8NMkdIrSuKU1o-216" style="edgeStyle=none;rounded=0;orthogonalLoop=1;jettySize=auto;html=1;exitX=0.65;exitY=1.017;exitDx=0;exitDy=0;endArrow=baseDash;endFill=0;exitPerimeter=0;" parent="Ma0h3Pk8NMkdIrSuKU1o-215" source="Ma0h3Pk8NMkdIrSuKU1o-217" edge="1">
          <mxGeometry relative="1" as="geometry">
            <mxPoint x="146.29315223542727" y="75.93871385412169" as="targetPoint" />
            <mxPoint x="136.3186191284663" y="59.063444108761324" as="sourcePoint" />
          </mxGeometry>
        </mxCell>
        <mxCell id="Ma0h3Pk8NMkdIrSuKU1o-217" value="" style="rounded=1;whiteSpace=wrap;html=1;" parent="Ma0h3Pk8NMkdIrSuKU1o-215" vertex="1">
          <mxGeometry x="109.71986417657045" y="33.75053949072075" width="39.8981324278438" height="25.312904618040566" as="geometry" />
        </mxCell>
        <mxCell id="Ma0h3Pk8NMkdIrSuKU1o-218" value="" style="rounded=1;whiteSpace=wrap;html=1;" parent="Ma0h3Pk8NMkdIrSuKU1o-215" vertex="1">
          <mxGeometry x="166.2422184493492" y="54.84462667242123" width="39.8981324278438" height="25.312904618040566" as="geometry" />
        </mxCell>
        <mxCell id="Ma0h3Pk8NMkdIrSuKU1o-219" value="" style="rounded=1;whiteSpace=wrap;html=1;" parent="Ma0h3Pk8NMkdIrSuKU1o-215" vertex="1">
          <mxGeometry x="97.75042444821732" y="80.1575312904618" width="39.8981324278438" height="25.312904618040566" as="geometry" />
        </mxCell>
        <mxCell id="Ma0h3Pk8NMkdIrSuKU1o-220" style="edgeStyle=none;rounded=0;orthogonalLoop=1;jettySize=auto;html=1;exitX=1;exitY=0.25;exitDx=0;exitDy=0;entryX=0;entryY=0.5;entryDx=0;entryDy=0;endArrow=classicThin;endFill=1;" parent="Ma0h3Pk8NMkdIrSuKU1o-215" source="Ma0h3Pk8NMkdIrSuKU1o-219" target="Ma0h3Pk8NMkdIrSuKU1o-218" edge="1">
          <mxGeometry relative="1" as="geometry">
            <mxPoint x="129.66893039049233" y="92.81398359948209" as="sourcePoint" />
            <mxPoint x="164.247311827957" y="67.09607250755285" as="targetPoint" />
          </mxGeometry>
        </mxCell>
        <mxCell id="Ma0h3Pk8NMkdIrSuKU1o-221" value="" style="rounded=1;whiteSpace=wrap;html=1;" parent="Ma0h3Pk8NMkdIrSuKU1o-215" vertex="1">
          <mxGeometry x="36.57328805885682" y="46.40699179974104" width="39.8981324278438" height="25.312904618040566" as="geometry" />
        </mxCell>
        <mxCell id="Ma0h3Pk8NMkdIrSuKU1o-222" style="rounded=0;orthogonalLoop=1;jettySize=auto;html=1;exitX=1;exitY=0.633;exitDx=0;exitDy=0;entryX=0;entryY=0;entryDx=0;entryDy=0;endArrow=baseDash;endFill=0;exitPerimeter=0;" parent="Ma0h3Pk8NMkdIrSuKU1o-215" source="Ma0h3Pk8NMkdIrSuKU1o-221" target="Ma0h3Pk8NMkdIrSuKU1o-219" edge="1">
          <mxGeometry relative="1" as="geometry">
            <mxPoint x="103.07017543859648" y="84.37634872680188" as="targetPoint" />
            <mxPoint x="75.90096737854215" y="62.55842690737773" as="sourcePoint" />
          </mxGeometry>
        </mxCell>
        <mxCell id="Ma0h3Pk8NMkdIrSuKU1o-223" value="" style="rounded=1;whiteSpace=wrap;html=1;" parent="Ma0h3Pk8NMkdIrSuKU1o-215" vertex="1">
          <mxGeometry x="29.923599320882847" y="114.32995252481655" width="39.8981324278438" height="25.312904618040566" as="geometry" />
        </mxCell>
        <mxCell id="Ma0h3Pk8NMkdIrSuKU1o-224" style="edgeStyle=none;rounded=0;orthogonalLoop=1;jettySize=auto;html=1;exitX=1;exitY=0.5;exitDx=0;exitDy=0;entryX=0;entryY=1;entryDx=0;entryDy=0;endArrow=classicThin;endFill=1;" parent="Ma0h3Pk8NMkdIrSuKU1o-215" source="Ma0h3Pk8NMkdIrSuKU1o-223" target="Ma0h3Pk8NMkdIrSuKU1o-219" edge="1">
          <mxGeometry relative="1" as="geometry">
            <mxPoint x="69.25127864056819" y="127.28835772792651" as="sourcePoint" />
            <mxPoint x="106.96547291574194" y="104.74660127077868" as="targetPoint" />
          </mxGeometry>
        </mxCell>
        <mxCell id="Ma0h3Pk8NMkdIrSuKU1o-225" style="rounded=0;orthogonalLoop=1;jettySize=auto;html=1;entryX=0;entryY=0;entryDx=0;entryDy=0;endArrow=baseDash;endFill=0;dashed=1;" parent="Ma0h3Pk8NMkdIrSuKU1o-215" target="Ma0h3Pk8NMkdIrSuKU1o-217" edge="1">
          <mxGeometry relative="1" as="geometry">
            <mxPoint x="101.07526881720429" y="84.37634872680188" as="targetPoint" />
            <mxPoint x="99.74533106960949" y="4.218817436340093" as="sourcePoint" />
          </mxGeometry>
        </mxCell>
        <mxCell id="Ma0h3Pk8NMkdIrSuKU1o-226" style="rounded=0;orthogonalLoop=1;jettySize=auto;html=1;entryX=0;entryY=0;entryDx=0;entryDy=0;endArrow=baseDash;endFill=0;dashed=1;" parent="Ma0h3Pk8NMkdIrSuKU1o-215" target="Ma0h3Pk8NMkdIrSuKU1o-221" edge="1">
          <mxGeometry relative="1" as="geometry">
            <mxPoint x="113.04470854555741" y="37.96935692706084" as="targetPoint" />
            <mxPoint x="13.299377475947933" y="21.09408718170047" as="sourcePoint" />
          </mxGeometry>
        </mxCell>
        <mxCell id="Ma0h3Pk8NMkdIrSuKU1o-227" style="rounded=0;orthogonalLoop=1;jettySize=auto;html=1;endArrow=baseDash;endFill=0;dashed=1;entryX=-0.033;entryY=0.9;entryDx=0;entryDy=0;entryPerimeter=0;" parent="Ma0h3Pk8NMkdIrSuKU1o-215" target="Ma0h3Pk8NMkdIrSuKU1o-223" edge="1">
          <mxGeometry relative="1" as="geometry">
            <mxPoint x="26.598754951895867" y="130.78334052654293" as="targetPoint" />
            <mxPoint x="3.3248443689869833" y="135.002157962883" as="sourcePoint" />
          </mxGeometry>
        </mxCell>
        <mxCell id="Ma0h3Pk8NMkdIrSuKU1o-228" style="edgeStyle=none;rounded=0;orthogonalLoop=1;jettySize=auto;html=1;exitX=1;exitY=0.5;exitDx=0;exitDy=0;entryX=0;entryY=1;entryDx=0;entryDy=0;endArrow=classicThin;endFill=1;dashed=1;" parent="Ma0h3Pk8NMkdIrSuKU1o-215" edge="1">
          <mxGeometry relative="1" as="geometry">
            <mxPoint x="8.644595359366157" y="92.81398359948209" as="sourcePoint" />
            <mxPoint x="36.57328805885682" y="71.7198964177816" as="targetPoint" />
          </mxGeometry>
        </mxCell>
        <mxCell id="Ma0h3Pk8NMkdIrSuKU1o-229" style="edgeStyle=none;rounded=0;orthogonalLoop=1;jettySize=auto;html=1;entryX=0;entryY=1;entryDx=0;entryDy=0;endArrow=classicThin;endFill=1;dashed=1;" parent="Ma0h3Pk8NMkdIrSuKU1o-215" edge="1">
          <mxGeometry relative="1" as="geometry">
            <mxPoint y="122.34570565386274" as="sourcePoint" />
            <mxPoint x="29.923599320882847" y="116.01747949935259" as="targetPoint" />
          </mxGeometry>
        </mxCell>
        <mxCell id="Ma0h3Pk8NMkdIrSuKU1o-230" style="edgeStyle=none;rounded=0;orthogonalLoop=1;jettySize=auto;html=1;entryX=0.45;entryY=-0.017;entryDx=0;entryDy=0;endArrow=classicThin;endFill=1;dashed=1;entryPerimeter=0;" parent="Ma0h3Pk8NMkdIrSuKU1o-215" target="Ma0h3Pk8NMkdIrSuKU1o-217" edge="1">
          <mxGeometry relative="1" as="geometry">
            <mxPoint x="123.01924165251839" as="sourcePoint" />
            <mxPoint x="33.24844368986983" y="120.23629693569268" as="targetPoint" />
          </mxGeometry>
        </mxCell>
        <mxCell id="Ma0h3Pk8NMkdIrSuKU1o-231" value="" style="ellipse;whiteSpace=wrap;html=1;aspect=fixed;fillColor=none;" parent="Ma0h3Pk8NMkdIrSuKU1o-215" vertex="1">
          <mxGeometry x="-60" y="-110.2" width="330.2" height="330.2" as="geometry" />
        </mxCell>
        <mxCell id="Ma0h3Pk8NMkdIrSuKU1o-232" style="edgeStyle=none;rounded=0;orthogonalLoop=1;jettySize=auto;html=1;exitX=1.025;exitY=0.675;exitDx=0;exitDy=0;dashed=1;endArrow=classicThin;endFill=1;exitPerimeter=0;" parent="Ma0h3Pk8NMkdIrSuKU1o-212" edge="1">
          <mxGeometry relative="1" as="geometry">
            <mxPoint x="50" y="86" as="targetPoint" />
            <mxPoint x="34.649122807017534" y="85.94259821428568" as="sourcePoint" />
          </mxGeometry>
        </mxCell>
        <mxCell id="Ma0h3Pk8NMkdIrSuKU1o-233" value="" style="rounded=1;whiteSpace=wrap;html=1;" parent="Ma0h3Pk8NMkdIrSuKU1o-212" vertex="1">
          <mxGeometry x="16.666666666666664" y="72.85714285714285" width="17.543859649122805" height="25.311785714285712" as="geometry" />
        </mxCell>
        <mxCell id="Ma0h3Pk8NMkdIrSuKU1o-234" value="" style="endArrow=none;html=1;rounded=0;" parent="Ma0h3Pk8NMkdIrSuKU1o-212" edge="1">
          <mxGeometry width="50" height="50" relative="1" as="geometry">
            <mxPoint x="21.052631578947366" y="73.46428571428571" as="sourcePoint" />
            <mxPoint x="21.052631578947366" as="targetPoint" />
          </mxGeometry>
        </mxCell>
        <mxCell id="Ma0h3Pk8NMkdIrSuKU1o-235" style="edgeStyle=none;rounded=0;orthogonalLoop=1;jettySize=auto;html=1;entryX=-0.02;entryY=0.279;entryDx=0;entryDy=0;endArrow=classicThin;endFill=1;entryPerimeter=0;" parent="Ma0h3Pk8NMkdIrSuKU1o-212" edge="1">
          <mxGeometry relative="1" as="geometry">
            <mxPoint y="86" as="sourcePoint" />
            <mxPoint x="16.31578947368422" y="85.91913107142855" as="targetPoint" />
          </mxGeometry>
        </mxCell>
        <mxCell id="Ma0h3Pk8NMkdIrSuKU1o-236" value="" style="endArrow=none;html=1;rounded=0;" parent="Ma0h3Pk8NMkdIrSuKU1o-212" edge="1">
          <mxGeometry width="50" height="50" relative="1" as="geometry">
            <mxPoint x="29.3859649122807" y="72.85714285714285" as="sourcePoint" />
            <mxPoint x="29.3859649122807" as="targetPoint" />
          </mxGeometry>
        </mxCell>
        <mxCell id="Ma0h3Pk8NMkdIrSuKU1o-237" value="" style="endArrow=none;html=1;rounded=0;" parent="1" edge="1">
          <mxGeometry width="50" height="50" relative="1" as="geometry">
            <mxPoint x="557.0526315789473" y="596" as="sourcePoint" />
            <mxPoint x="557.0526315789473" y="523.1428571428569" as="targetPoint" />
          </mxGeometry>
        </mxCell>
        <mxCell id="Ma0h3Pk8NMkdIrSuKU1o-238" value="" style="endArrow=none;html=1;rounded=0;" parent="1" edge="1">
          <mxGeometry width="50" height="50" relative="1" as="geometry">
            <mxPoint x="565.3859649122808" y="596" as="sourcePoint" />
            <mxPoint x="565.3859649122808" y="523.1428571428569" as="targetPoint" />
          </mxGeometry>
        </mxCell>
        <mxCell id="Ma0h3Pk8NMkdIrSuKU1o-239" style="edgeStyle=none;rounded=0;orthogonalLoop=1;jettySize=auto;html=1;exitX=1;exitY=0.25;exitDx=0;exitDy=0;dashed=1;endArrow=classicThin;endFill=1;" parent="1" edge="1">
          <mxGeometry relative="1" as="geometry">
            <mxPoint x="552" y="512" as="targetPoint" />
            <mxPoint x="536.2105263157894" y="512.1850892857142" as="sourcePoint" />
          </mxGeometry>
        </mxCell>
        <mxCell id="Ma0h3Pk8NMkdIrSuKU1o-240" value="" style="rounded=1;whiteSpace=wrap;html=1;" parent="1" vertex="1">
          <mxGeometry x="552.6666666666666" y="498.85714285714283" width="17.543859649122805" height="25.311785714285712" as="geometry" />
        </mxCell>
        <mxCell id="Ma0h3Pk8NMkdIrSuKU1o-241" value="" style="endArrow=none;html=1;rounded=0;" parent="1" edge="1">
          <mxGeometry width="50" height="50" relative="1" as="geometry">
            <mxPoint x="557.0526315789473" y="499.4642857142858" as="sourcePoint" />
            <mxPoint x="557.0526315789473" y="426" as="targetPoint" />
          </mxGeometry>
        </mxCell>
        <mxCell id="Ma0h3Pk8NMkdIrSuKU1o-242" value="" style="endArrow=none;html=1;rounded=0;" parent="1" edge="1">
          <mxGeometry width="50" height="50" relative="1" as="geometry">
            <mxPoint x="565.3859649122808" y="498.8571428571429" as="sourcePoint" />
            <mxPoint x="565.3859649122808" y="426" as="targetPoint" />
          </mxGeometry>
        </mxCell>
        <mxCell id="Ma0h3Pk8NMkdIrSuKU1o-243" style="edgeStyle=none;rounded=0;orthogonalLoop=1;jettySize=auto;html=1;entryX=0;entryY=0.25;entryDx=0;entryDy=0;endArrow=classicThin;endFill=1;" parent="1" edge="1">
          <mxGeometry relative="1" as="geometry">
            <mxPoint x="570.21" y="511.9200000000001" as="sourcePoint" />
            <mxPoint x="586.8766666666666" y="511.10508928571403" as="targetPoint" />
          </mxGeometry>
        </mxCell>
        <mxCell id="Ma0h3Pk8NMkdIrSuKU1o-244" style="edgeStyle=none;rounded=0;orthogonalLoop=1;jettySize=auto;html=1;entryX=0.84;entryY=0.125;entryDx=0;entryDy=0;entryPerimeter=0;dashed=1;endArrow=classicThin;endFill=1;" parent="1" target="Ma0h3Pk8NMkdIrSuKU1o-231" edge="1">
          <mxGeometry relative="1" as="geometry">
            <mxPoint x="600" y="290" as="sourcePoint" />
            <mxPoint x="589.9478491228069" y="291.10591428571433" as="targetPoint" />
          </mxGeometry>
        </mxCell>
      </root>
    </mxGraphModel>
  </diagram>
</mxfile>
